<?xml version="1.0" standalone="no"?>
<!DOCTYPE svg PUBLIC "-//W3C//DTD SVG 20010904//EN"
 "http://www.w3.org/TR/2001/REC-SVG-20010904/DTD/svg10.dtd">
<svg version="1.0" xmlns="http://www.w3.org/2000/svg"
 width="512.000000pt" height="512.000000pt" viewBox="0 0 512.000000 512.000000"
 preserveAspectRatio="xMidYMid meet">

<g transform="translate(0.000000,512.000000) scale(0.100000,-0.100000)"
fill="#000000" stroke="none">
<path d="M3272 4757 c-44 -17 -100 -63 -124 -104 l-20 -34 -37 39 c-57 62 -94
77 -186 77 -70 0 -86 -4 -128 -28 -51 -30 -103 -99 -114 -149 -7 -34 -13 -35
-59 -3 -101 68 -225 55 -313 -33 -43 -44 -60 -77 -76 -155 -5 -22 -10 -27 -23
-22 -68 29 -102 37 -148 32 -126 -13 -220 -109 -232 -239 -4 -49 -7 -58 -21
-52 -9 4 -47 9 -86 11 -62 4 -77 1 -125 -24 -96 -49 -148 -145 -136 -249 l6
-51 -45 10 c-100 23 -220 -37 -269 -134 -28 -57 -35 -143 -16 -193 l10 -26
-66 0 c-75 0 -116 -15 -169 -61 -75 -66 -104 -179 -70 -274 8 -22 15 -41 15
-41 0 -1 -21 -5 -47 -9 -106 -15 -190 -84 -218 -179 -24 -81 -16 -143 30 -210
30 -45 30 -46 5 -46 -33 0 -115 -46 -145 -82 -86 -101 -81 -240 11 -338 43
-46 44 -48 22 -53 -41 -11 -104 -74 -128 -128 -17 -42 -21 -66 -18 -119 5 -88
42 -152 115 -196 l51 -30 -35 -35 c-51 -48 -73 -102 -73 -177 0 -73 15 -114
61 -167 37 -42 118 -85 161 -85 l27 0 -24 -46 c-29 -55 -34 -153 -11 -208 21
-50 80 -111 131 -135 48 -22 135 -28 178 -12 24 9 24 9 19 -39 -20 -212 238
-352 405 -220 l27 21 18 -47 c21 -57 79 -120 133 -145 121 -56 292 12 336 134
l12 34 42 -32 c105 -80 243 -69 336 27 59 61 86 172 59 242 l-10 26 63 0 c145
0 249 105 248 251 0 67 -25 132 -64 168 l-26 23 59 29 c170 85 190 313 38 425
-17 13 -36 25 -42 27 -6 2 10 25 36 50 71 71 95 165 66 259 -15 50 -89 133
-132 149 l-33 12 42 42 c115 114 89 320 -48 392 l-29 14 39 29 c108 80 131
238 50 349 l-33 45 58 29 c95 47 145 140 135 248 l-5 59 56 0 c109 1 184 47
231 141 l29 58 24 -18 c91 -71 192 -77 292 -16 l54 32 11 -39 c7 -22 28 -57
48 -79 52 -57 105 -82 178 -83 l61 -1 -14 -53 c-25 -99 18 -209 105 -266 45
-30 126 -49 169 -41 l31 5 -1 -67 c0 -51 6 -80 22 -114 27 -55 27 -59 4 -59
-35 0 -122 -52 -161 -97 -78 -88 -94 -225 -39 -330 l27 -51 -39 -49 c-127
-160 -314 -532 -440 -873 -40 -111 -41 -115 -23 -130 29 -23 520 -193 538
-186 20 7 33 39 89 220 100 320 160 602 172 807 l7 107 42 16 c156 60 229 248
156 402 -16 34 -34 65 -41 69 -7 5 4 15 32 27 133 59 189 202 134 338 -5 12 4
15 48 17 177 5 289 194 212 359 -24 52 -84 110 -124 120 -22 6 -22 6 9 42 87
99 93 234 15 337 -36 47 -117 87 -182 88 -29 1 -54 3 -54 3 0 1 7 18 15 37 19
47 19 138 0 185 -21 49 -80 110 -130 133 -48 22 -151 25 -199 5 l-33 -14 -6
53 c-18 179 -202 282 -362 203 -22 -11 -50 -29 -62 -40 l-21 -20 -20 44 c-23
54 -74 105 -127 129 -46 21 -142 24 -193 6z m175 -78 c99 -48 126 -195 50
-278 -29 -32 -94 -61 -136 -61 -50 0 -119 37 -146 79 -104 158 61 343 232 260z
m-488 -19 c39 -11 86 -51 107 -92 23 -44 18 -125 -11 -174 -59 -101 -226 -111
-292 -18 -104 147 25 333 196 284z m955 -103 c89 -68 98 -191 21 -269 -112
-112 -292 -45 -303 113 -4 50 0 65 22 104 37 62 84 86 162 82 49 -2 69 -8 98
-30z m-1364 -52 c52 -27 100 -103 100 -160 0 -34 -26 -94 -53 -123 -79 -85
-223 -68 -282 31 -91 156 75 333 235 252z m618 -145 c56 -75 186 -110 278 -75
25 10 61 31 79 47 l33 29 11 -34 c16 -47 75 -113 125 -140 52 -27 164 -30 214
-5 l32 16 0 -46 c0 -54 29 -124 68 -166 38 -41 118 -76 173 -76 l47 0 -14 -37
c-40 -113 6 -244 106 -301 25 -14 46 -26 48 -27 1 -1 -10 -16 -26 -33 -64 -69
-89 -181 -58 -256 9 -21 16 -39 16 -40 0 0 -24 -1 -53 -2 l-52 0 0 70 c-1 81
-21 130 -77 182 -52 49 -96 68 -164 68 l-60 1 13 44 c17 57 16 76 -3 140 -27
92 -108 161 -206 176 -57 9 -144 -15 -186 -50 l-30 -25 -12 34 c-47 144 -213
211 -352 143 -61 -30 -115 -90 -125 -139 -3 -16 -7 -28 -9 -28 -1 0 -26 15
-55 33 -48 29 -59 32 -134 32 -73 0 -86 -3 -130 -30 -27 -17 -62 -48 -77 -70
-37 -52 -56 -141 -42 -194 l10 -38 -65 0 c-145 2 -251 -105 -251 -251 0 -66
17 -115 54 -159 l25 -30 -56 -29 c-71 -36 -117 -94 -134 -169 -23 -102 21
-213 105 -265 l37 -22 -33 -24 c-148 -110 -129 -341 35 -425 l37 -19 -36 -37
c-110 -109 -96 -291 28 -383 l47 -34 -36 -30 c-81 -67 -108 -207 -59 -304 14
-27 32 -54 40 -61 23 -19 20 -25 -20 -40 -108 -39 -178 -184 -145 -299 10 -33
10 -33 -19 -27 -48 10 -136 -13 -182 -48 -22 -18 -53 -54 -67 -82 -14 -27 -27
-52 -28 -54 -1 -1 -18 9 -37 24 -78 59 -176 71 -261 31 -27 -12 -56 -30 -64
-40 -12 -15 -16 -11 -32 36 -21 64 -95 138 -156 156 -47 14 -106 15 -148 3
l-30 -8 3 54 c5 66 -17 130 -62 181 -34 39 -116 82 -158 82 -34 0 -34 -1 -5
47 31 53 31 170 0 229 -24 45 -81 100 -120 115 l-25 9 45 50 c53 59 72 117 64
196 -6 61 -42 131 -84 164 -22 17 -25 23 -13 30 8 6 18 10 22 10 17 0 91 76
109 112 40 78 34 173 -17 250 l-24 38 27 6 c155 37 239 202 178 350 l-13 31
53 6 c92 9 177 71 211 153 16 37 19 141 5 176 -8 23 -7 23 58 24 153 1 261
119 249 271 l-5 52 58 -6 c81 -8 140 10 199 64 56 50 83 110 84 184 1 38 4 48
15 44 8 -3 34 -10 58 -15 129 -29 267 64 294 200 l11 59 42 -21 c57 -30 156
-30 211 0 72 38 111 84 134 154 l12 37 49 -31 c115 -71 281 -36 343 73 12 21
25 39 28 39 3 0 15 -13 27 -30z m1095 -34 c95 -41 133 -150 85 -246 -67 -132
-248 -132 -316 0 -77 149 77 312 231 246z m-2112 -41 c81 -42 115 -167 67
-250 -32 -55 -88 -85 -159 -85 -155 0 -232 181 -126 296 56 61 144 77 218 39z
m-370 -278 c58 -31 89 -84 89 -155 0 -61 -17 -99 -59 -135 -95 -79 -222 -52
-277 60 -22 43 -25 61 -20 97 19 127 152 193 267 133z m2761 -68 c23 -12 47
-36 64 -64 22 -39 26 -55 22 -100 -14 -162 -199 -227 -309 -108 -74 79 -56
215 35 269 61 36 119 37 188 3z m-1267 10 c57 -16 95 -46 116 -93 56 -124 -27
-259 -160 -258 -162 2 -240 193 -126 307 50 50 101 63 170 44z m-418 -130 c34
-13 80 -55 99 -91 21 -40 18 -127 -5 -164 -52 -85 -150 -116 -236 -74 -133 65
-135 253 -3 319 47 23 101 27 145 10z m893 -14 c59 -30 93 -89 93 -160 0 -105
-73 -178 -178 -178 -214 0 -248 304 -40 354 36 8 90 1 125 -16z m-2308 -112
c99 -49 128 -187 56 -269 -51 -58 -109 -78 -179 -63 -86 20 -139 87 -139 175
0 133 142 218 262 157z m3123 -184 c57 -16 95 -46 116 -93 57 -125 -25 -256
-160 -256 -60 0 -98 17 -134 59 -61 72 -60 167 1 233 20 21 55 45 77 53 49 17
51 17 100 4z m-1984 -42 c101 -68 115 -193 30 -278 -144 -145 -370 23 -280
208 29 60 86 93 160 93 42 0 65 -6 90 -23z m1411 -7 c127 -36 176 -190 92
-290 -36 -42 -77 -61 -134 -62 -99 0 -170 62 -178 157 -8 94 32 161 114 190
48 17 59 18 106 5z m-2859 -114 c18 -7 47 -29 64 -49 105 -120 2 -315 -155
-293 -147 20 -210 184 -114 298 47 55 134 74 205 44z m3208 -222 c111 -56 127
-215 29 -298 -48 -40 -101 -50 -163 -32 -84 25 -127 83 -127 173 0 135 139
219 261 157z m-1863 -106 c136 -91 78 -310 -88 -326 -143 -14 -240 141 -169
269 49 88 169 115 257 57z m-1552 -83 c42 -32 64 -82 64 -148 0 -183 -252
-238 -337 -74 -9 18 -16 54 -16 82 0 120 98 198 218 172 22 -4 54 -19 71 -32z
m3235 -207 c52 -15 117 -73 140 -122 22 -48 25 -133 6 -179 -37 -88 -117 -140
-212 -140 -131 0 -225 95 -225 225 1 153 145 260 291 216z m-1692 -158 c132
-67 131 -255 -1 -319 -54 -26 -100 -26 -153 -2 -70 32 -105 86 -105 161 0 135
140 221 259 160z m-1705 -63 c112 -86 90 -251 -42 -309 -78 -35 -168 -5 -220
72 -20 30 -23 45 -20 100 4 76 29 119 86 150 55 30 147 24 196 -13z m3282
-293 c51 -7 48 4 34 -149 -19 -198 -90 -507 -183 -795 -24 -74 -38 -104 -48
-102 -20 4 -413 143 -418 148 -2 2 27 81 65 176 114 286 259 568 373 722 l40
54 46 -24 c26 -12 66 -26 91 -30z m-1517 -98 c109 -57 133 -204 47 -289 -39
-39 -109 -62 -157 -52 -213 44 -187 355 29 355 29 0 66 -7 81 -14z m-1828 -60
c42 -28 79 -97 79 -147 0 -42 -29 -107 -61 -136 -83 -76 -230 -49 -278 50 -50
104 -1 223 107 258 42 13 112 1 153 -25z m1860 -402 c38 -19 76 -68 91 -115
36 -120 -87 -248 -211 -220 -185 41 -189 308 -5 350 44 9 87 4 125 -15z
m-1822 -44 c132 -67 131 -255 -1 -319 -138 -67 -283 49 -254 204 8 42 58 103
101 121 44 19 110 17 154 -6z m1698 -391 c140 -52 153 -264 20 -328 -175 -85
-338 110 -226 270 39 56 139 84 206 58z m-1497 -21 c175 -89 99 -350 -98 -335
-98 7 -166 88 -160 189 5 69 41 121 102 149 55 25 102 24 156 -3z m328 -293
c76 -32 112 -86 112 -168 0 -68 -37 -129 -96 -157 -141 -69 -295 58 -253 207
29 104 139 158 237 118z m891 -40 c64 -33 108 -116 98 -187 -17 -128 -168
-196 -276 -125 -148 98 -81 326 97 327 29 0 66 -7 81 -15z m-452 -100 c50 -21
72 -42 94 -90 51 -111 -21 -241 -140 -253 -66 -6 -113 12 -155 58 -80 89 -51
231 58 281 50 23 95 24 143 4z"/>
</g>
</svg>
